<?xml version="1.0" encoding="utf-8"?>
<!-- Uploaded to: SVG Repo, www.svgrepo.com, Generator: SVG Repo Mixer Tools -->
<svg width="800px" height="800px" viewBox="0 0 1024 1024" class="icon"  version="1.1" xmlns="http://www.w3.org/2000/svg"><path d="M35.70206 248.785503s23.001723 11.924206 34.361469 20.532212c14.534831 10.936402 118.042583 65.195066 103.29608 192.339558-7.055743 47.202922-56.234273 141.255977-144.642734 158.189761-0.141115 2.257838 0 0 0 0s236.367395 24.695101 219.574726-190.998967C242.011989 369.015366 218.304692 266.848205 66.606215 249.914422c-24.201199-1.128919-30.904155-1.128919-30.904155-1.128919z" fill="#F3AF1A" /><path d="M35.70206 248.785503L583.368842 170.043409l220.915317 48.190726L66.676773 249.914422z" fill="#F3AF1A" /><path d="M35.70206 248.785503l768.582099-30.551368s217.81079 244.622614-46.42679 542.727761H658.794736s12.065321-60.891063-50.236891-69.640184c-27.446841-3.316199-77.683732 12.700338-64.912837 75.002549-78.318749-1.975608-514.857576-5.997382-514.857576-5.997382v-140.409288s170.255082 19.614966 208.638324-127.638393c7.620203-68.370151 11.148074-211.883966-168.491146-240.741956-15.945979-2.328395-33.23255-2.75174-33.23255-2.751739z" fill="#F4C323" /><path d="M757.645697 570.174602m-64.912837 0a64.912837 64.912837 0 1 0 129.825674 0 64.912837 64.912837 0 1 0-129.825674 0Z" fill="#F6AF1C" /><path d="M692.73286 612.650176c-38.312685 0-69.49907-31.186385-69.49907-69.49907s31.186385-69.49907 69.49907-69.49907 69.49907 31.186385 69.49907 69.49907-31.186385 69.49907-69.49907 69.49907z m0-117.830911c-26.670709 0-48.33184 21.661131-48.33184 48.331841s21.661131 48.33184 48.33184 48.33184 48.33184-21.661131 48.331841-48.33184-21.661131-48.33184-48.331841-48.331841zM399.072831 434.986564c-28.364087 0-51.36581-23.07228-51.36581-51.36581s23.07228-51.36581 51.36581-51.36581 51.36581 23.07228 51.36581 51.36581-23.07228 51.36581-51.36581 51.36581z m0-81.634948c-16.651554 0-30.198581 13.547027-30.19858 30.19858s13.547027 30.198581 30.19858 30.198581 30.198581-13.547027 30.198581-30.198581-13.547027-30.198581-30.198581-30.19858z" fill="#7A4721" /><path d="M325.48143 658.018604m-73.5914 0a73.591401 73.591401 0 1 0 147.182801 0 73.591401 73.591401 0 1 0-147.182801 0Z" fill="#F6AF1C" /><path d="M565.941156 416.359402m-67.805691 0a67.805691 67.805691 0 1 0 135.611383 0 67.805691 67.805691 0 1 0-135.611383 0Z" fill="#F6AF1C" /><path d="M793.347757 279.125198m-29.210776 0a29.210777 29.210777 0 1 0 58.421553 0 29.210777 29.210777 0 1 0-58.421553 0Z" fill="#F6AF1C" /><path d="M876.111624 751.577758h119.171501v89.678495l-25.471232 40.217736h-116.490319l-30.76304-32.174189z" fill="#F4C323" /><path d="M969.811893 881.473989l25.471232-40.217736v-44.945084l-48.896299 6.138497-5.362365 36.830979H925.007924l-9.384138 34.149797-1.763936 8.043547z" fill="#F3AF1A" /></svg>