<?xml version="1.0" encoding="utf-8"?>
<!-- Uploaded to: SVG Repo, www.svgrepo.com, Generator: SVG Repo Mixer Tools -->
<svg width="800px" height="800px" viewBox="0 0 1024 1024" class="icon"  version="1.1" xmlns="http://www.w3.org/2000/svg"><path d="M420.310618 307.6304S326.32812 190.36395 201.441466 217.458003c-34.855371 8.678564-89.960725 21.378902-125.662785 82.552195-5.362365 11.712534-25.612348 37.324881-37.042651 42.263901-6.914628 3.951216-10.654172 12.276993-4.374561 17.780473 8.537449 4.515676 33.938124 23.636739 45.86233 36.901536 6.702956 7.196858 53.341418 69.569627 147.465032 67.170675 56.163715-5.574037 115.220285-10.089713 193.539034-93.347482s-0.917247-63.148901-0.917247-63.148901z" fill="#F1D988" /><path d="M38.877145 341.356852c4.374561-1.905051 10.089713-6.844071 15.734307-12.912009 9.87804 7.761317 20.391098 16.792669 27.023496 24.201198 7.267415 7.831875 57.715979 75.355337 159.742024 72.744712 60.820506-6.067939 124.816096-10.936402 209.626129-101.108799 1.693378-1.763936 3.175084-3.457314 4.727348-5.150692-1.340591 9.666368-10.513057 25.400675-34.361469 50.730793-78.318749 83.257769-137.375319 87.773444-193.539034 93.347481-94.194171 2.398953-140.832633-59.903259-147.465032-67.170674C68.440708 382.703507 43.040033 363.653001 34.502584 359.137325c-6.279611-5.50348-2.610625-13.829257 4.374561-17.780473z" fill="#EFCF6C" /><path d="M319.272376 543.292221S468.360229 327.104251 689.346103 358.713981c61.80831 10.72473 159.459795 25.965135 229.38221 128.132295 10.72473 19.685523 49.249087 61.80831 69.922414 69.005168 12.559223 5.997382 20.108868 20.108868 9.87804 30.48081-14.323159 8.960794-56.163715 45.438986-75.355336 70.134087-10.72473 13.405912-84.175016 127.920623-248.573831 135.540825-98.568731-2.681182-202.076483-3.104527-348.977055-138.43368s-6.350169-110.281265-6.350169-110.281265z" fill="#EABD2C" /><path d="M988.227382 554.158065c-7.902432-2.75174-18.486047-10.654172-29.069661-20.461655-16.298767 14.746503-33.444222 31.821402-44.098395 45.580101-11.641976 14.534831-91.160201 138.504238-269.247158 146.759457-106.753394-2.892855-218.869152-3.386757-377.976159-149.934542-3.104527-2.892855-5.926824-5.574037-8.819679-8.325777 3.527872 16.722111 21.520017 42.969476 66.182871 84.033901 146.971129 135.329153 250.408324 135.752498 348.977055 138.43368 164.398815-7.620203 237.849101-122.064356 248.57383-135.540825 19.191621-24.695101 60.961621-61.173293 75.355337-70.134087 10.230828-10.301385 2.681182-24.412871-9.878041-30.410253z" fill="#F5AD1A" /><path d="M20.743885 675.16406a208.21498 197.349135 0 1 0 416.429959 0 208.21498 197.349135 0 1 0-416.429959 0Z" fill="#E9AA23" /><path d="M237.637429 635.863571l167.573899-68.864053c-33.444222-51.154138-95.605319-86.150624-167.573899-88.761249v157.625302zM252.736719 648.563908L399.355061 747.979329c20.249983-27.305726 32.103631-59.762144 32.103631-94.617515 0-25.330118-6.350169-49.319644-17.427685-71.121891l-161.294288 66.323985zM220.139186 626.408875v-148.170606c-54.329222 2.046166-103.084407 22.578378-138.080893 54.611452L220.139186 626.408875zM215.976297 644.753807L69.49907 545.479501c-26.882381 29.775236-43.040033 67.170675-43.040033 107.882313 0 22.437263 5.080135 43.816165 13.899814 63.572245l175.617446-72.180252zM237.637429 659.429753v169.055605c61.173293-2.257838 115.220285-27.870185 150.640115-66.959002L237.637429 659.429753zM220.139186 661.96982l-171.666231 70.557431c32.174189 54.964239 96.522566 93.135809 171.666231 95.958107v-166.515538z" fill="#EACC53" /><path d="M330.773238 597.621443c-17.145456-34.996486-52.141942-59.479915-93.206367-61.667195v99.97988L330.773238 597.621443zM328.162613 699.718046c8.890236-15.875422 13.970371-34.149797 13.970371-53.694205 0-11.218632-1.693378-22.013919-4.797905-32.244746l-84.59836 34.784813 75.425894 51.154138zM220.068628 536.236478c-29.775236 3.104527-56.093158 18.062702-74.014745 40.076621l74.014745 50.166333V536.236478zM136.175842 590.777372c-9.454696 16.298767-14.958175 35.137601-14.958175 55.317026 0 12.34755 2.116723 24.201199 5.856267 35.278716L215.90574 644.824364l-79.729898-54.046992zM237.566871 756.163991c32.809206-1.763936 61.737752-17.709915 80.788259-41.911114l-80.788259-54.823124v96.734238zM133.918005 697.460208c16.792669 31.891959 48.684628 54.540894 86.150623 58.421553v-93.841383l-86.150623 35.41983z" fill="#F5ECDA" /><path d="M72.391924 582.239923m-17.992144 0a17.992145 17.992145 0 1 0 35.984289 0 17.992145 17.992145 0 1 0-35.984289 0Z" fill="#FFFFFF" /><path d="M747.697099 428.848067m-17.145456 0a17.145456 17.145456 0 1 0 34.290912 0 17.145456 17.145456 0 1 0-34.290912 0Z" fill="#774621" /><path d="M823.264108 463.068421m-17.145456 0a17.145456 17.145456 0 1 0 34.290912 0 17.145456 17.145456 0 1 0-34.290912 0Z" fill="#774621" /><path d="M771.051609 495.313168m-17.145456 0a17.145456 17.145456 0 1 0 34.290912 0 17.145456 17.145456 0 1 0-34.290912 0Z" fill="#774621" /><path d="M550.065734 445.993523m-17.145456 0a17.145456 17.145456 0 1 0 34.290912 0 17.145456 17.145456 0 1 0-34.290912 0Z" fill="#774621" /><path d="M613.779095 495.313168m-17.145456 0a17.145456 17.145456 0 1 0 34.290911 0 17.145456 17.145456 0 1 0-34.290911 0Z" fill="#774621" /></svg>