<?xml version="1.0" encoding="utf-8"?>
<!-- Uploaded to: SVG Repo, www.svgrepo.com, Generator: SVG Repo Mixer Tools -->
<svg width="800px" height="800px" viewBox="0 0 1024 1024" class="icon"  version="1.1" xmlns="http://www.w3.org/2000/svg"><path d="M47.837938 504.062289s-37.818783 82.41108 16.863226 122.76993 357.514504 260.639151 357.514505 260.639151 71.474678 50.236891 145.84221 13.053125c97.22814-48.61407 371.061531-260.356921 371.061531-260.356921s71.121891-51.859712 47.696824-136.458072c-669.872252-58.562668-938.978295 0.352787-938.978296 0.352787z" fill="#EBA824" /><path d="M53.482533 501.028319s-60.044374 48.402398 70.134087 128.414525 290.34383 195.726314 290.343829 195.726315 97.22814 85.021705 213.506787 0c112.821333-90.242955 307.277613-227.406601 307.277613-227.406601s116.560876-64.489492 12.135879-140.620961c-88.479019-64.489492-203.628747-145.559981-338.040654-211.178392-23.07228-11.289189-75.708124-8.749121-134.129676 23.283953-51.08358 28.0113-421.227865 231.781162-421.227865 231.781161z" fill="#6E4921" /><path d="M443.8768 396.462206l228.112175-84.810032 47.696824 11.077517-260.921381 99.485978z" fill="#EACC53" /><path d="M719.685799 322.729691v27.587955L470.547509 447.757459l-2.46951-29.563564z" fill="#EABD2C" /><path d="M430.470888 427.507476m-144.360504 0a144.360504 144.360504 0 1 0 288.721009 0 144.360504 144.360504 0 1 0-288.721009 0Z" fill="#EBA824" /><path d="M430.470888 283.146972c-79.729897 0-144.360504 64.630607-144.360504 144.360504 0 0.846689 0.141115 1.622821 0.141115 2.46951 36.548749 29.634121 89.678495 48.261283 148.87618 48.261283 54.188107 0 103.296079-15.66375 139.280369-41.064425 0.211672-3.245642 0.493902-6.420726 0.493902-9.666368 0-79.729897-64.630607-144.360504-144.431062-144.360504z" fill="#EECDAD" /><path d="M549.289602 447.969131s-6.209054 13.829257-7.972989 43.533935c-0.28223 10.301385-6.209054 10.301385-10.019156 10.301385s-2.328395-21.167229-2.963412-24.695101c-0.564459-3.527872 0.564459-21.802246-17.921587-22.931165 32.668091-8.255219 38.877145-6.209054 38.877144-6.209054z" fill="#EECDAD" /><path d="M467.866327 455.307104s-4.868463 19.967753-6.279612 63.007786c-0.211672 14.887618-4.868463 14.887618-7.902432 14.887618-3.03397 0-1.834493-30.621925-2.328395-35.772618-0.493902-5.080135 0.493902-31.468614-14.182044-33.161992 25.753462-11.924206 30.692483-8.960794 30.692483-8.960794z" fill="#6E4921" /><path d="M390.535382 317.79067s-1.058361 0.141115-2.892855 0.493902c-0.917247 0.211672-2.046166 0.493902-3.316199 0.776132-1.270034 0.352787-2.681182 0.776132-4.162888 1.270034-1.481706 0.493902-3.104527 1.128919-4.797906 1.834493-1.693378 0.705574-3.386757 1.552263-5.150692 2.46951-0.917247 0.423345-1.763936 0.987804-2.610625 1.481706-0.846689 0.564459-1.763936 1.058361-2.610625 1.622821-0.846689 0.564459-1.763936 1.128919-2.610625 1.763936l-1.270034 0.917247-1.270034 0.987804c-1.693378 1.270034-3.245642 2.75174-4.727347 4.162888l-1.128919 1.128919c-0.352787 0.352787-0.705574 0.705574-1.058362 1.128919-0.705574 0.705574-1.340591 1.481706-2.046165 2.257838-1.270034 1.552263-2.540068 3.03397-3.598429 4.515675-0.28223 0.352787-0.564459 0.705574-0.776132 1.058362-0.28223 0.352787-0.493902 0.705574-0.705574 1.058361-0.493902 0.705574-0.987804 1.411149-1.411149 2.046166-0.846689 1.340591-1.622821 2.610625-2.257838 3.739544-0.635017 1.128919-1.270034 2.116723-1.622821 2.963412-0.846689 1.693378-1.411149 2.610625-1.411148 2.610625s0.352787-0.987804 0.987804-2.822298c0.28223-0.917247 0.776132-1.975608 1.340591-3.175084 0.493902-1.199476 1.199476-2.540068 1.975608-4.021774 0.352787-0.705574 0.846689-1.481706 1.270034-2.18728 0.211672-0.352787 0.423345-0.776132 0.705574-1.128919s0.493902-0.776132 0.776132-1.128919c0.987804-1.552263 2.18728-3.175084 3.457314-4.797905 1.270034-1.552263 2.681182-3.175084 4.233446-4.727348 1.552263-1.481706 3.104527-3.03397 4.868463-4.374561l1.270033-0.987804 1.340592-0.987804c0.846689-0.635017 1.834493-1.199476 2.681182-1.834493 1.834493-1.128919 3.668986-2.18728 5.50348-3.03397 1.834493-0.917247 3.668986-1.622821 5.432922-2.328395 1.763936-0.635017 3.457314-1.128919 5.009577-1.552263 3.175084-0.776132 5.856267-1.199476 7.761318-1.340591 0.917247-0.070557 1.693378-0.070557 2.18728-0.141115 0.352787 0.28223 0.635017 0.28223 0.635017 0.282229z" fill="#FFFFFF" /><path d="M318.284572 396.814993m-12.135878 0a12.135878 12.135878 0 1 0 24.271757 0 12.135878 12.135878 0 1 0-24.271757 0Z" fill="#FFFFFF" /><path d="M225.995452 482.401158m-144.360504 0a144.360504 144.360504 0 1 0 288.721009 0 144.360504 144.360504 0 1 0-288.721009 0Z" fill="#EBA824" /><path d="M225.995452 338.040653c-79.729897 0-144.360504 64.630607-144.360504 144.360505 0 0.846689 0.141115 1.622821 0.141115 2.46951 36.548749 29.634121 89.678495 48.261283 148.87618 48.261283 54.188107 0 103.296079-15.66375 139.280369-41.064425 0.211672-3.245642 0.493902-6.420726 0.493902-9.666368-0.070557-79.729897-64.701164-144.360504-144.431062-144.360505z" fill="#3C7837" /><path d="M192.692345 517.115414s8.043547 17.992145 10.371942 56.657617c0.352787 13.405912 8.043547 13.405912 13.053125 13.405912s3.03397-27.587956 3.810101-32.174189c0.776132-4.586233-0.776132-28.364087 23.35451-29.845793-42.546131-10.72473-50.589678-8.043547-50.589678-8.043547z" fill="#3C7837" /><path d="M236.296837 511.470819s6.350169 26.035692 8.184662 81.987735c0.28223 19.403294 6.350169 19.403294 10.301385 19.403294s2.398953-39.864949 3.03397-46.497347c0.635017-6.632399-0.635017-40.993868 18.486047-43.181148-33.585337-15.593192-40.006064-11.712534-40.006064-11.712534z" fill="#3C7837" /><path d="M180.697581 380.727899s-1.058361 0.141115-2.892854 0.493902c-0.917247 0.211672-2.046166 0.493902-3.316199 0.776132-1.270034 0.352787-2.681182 0.776132-4.162889 1.270034-1.481706 0.493902-3.104527 1.128919-4.797905 1.834493-1.693378 0.705574-3.386757 1.552263-5.150693 2.46951-0.917247 0.423345-1.763936 0.987804-2.610625 1.481706-0.846689 0.564459-1.763936 1.058361-2.610625 1.622821-0.846689 0.564459-1.763936 1.128919-2.610625 1.763936l-1.270033 0.917246-1.270034 0.987804c-1.693378 1.270034-3.245642 2.75174-4.727348 4.162889l-1.128919 1.128919c-0.352787 0.352787-0.705574 0.705574-1.058361 1.128919-0.705574 0.705574-1.340591 1.481706-2.046166 2.257837-1.270034 1.552263-2.540068 3.03397-3.598429 4.515676-0.28223 0.352787-0.564459 0.705574-0.776132 1.058361-0.28223 0.352787-0.493902 0.705574-0.705574 1.058362-0.493902 0.705574-0.987804 1.411149-1.411149 2.046165-0.846689 1.340591-1.622821 2.610625-2.257837 3.739544-0.635017 1.128919-1.270034 2.116723-1.622821 2.963412-0.846689 1.693378-1.411149 2.610625-1.411149 2.610625s0.352787-0.987804 0.987804-2.822297c0.28223-0.917247 0.776132-1.975608 1.340591-3.175084 0.493902-1.199476 1.199476-2.540068 1.975608-4.021774 0.352787-0.705574 0.846689-1.481706 1.270034-2.18728 0.211672-0.352787 0.423345-0.776132 0.705574-1.128919s0.493902-0.776132 0.776132-1.128919c0.987804-1.552263 2.18728-3.175084 3.457314-4.797905 1.270034-1.552263 2.681182-3.175084 4.233446-4.727348 1.552263-1.481706 3.104527-3.03397 4.868463-4.374561l1.270034-0.987804 1.340591-0.987804c0.846689-0.635017 1.834493-1.199476 2.681182-1.834493 1.834493-1.128919 3.668986-2.18728 5.50348-3.03397 1.834493-0.917247 3.668986-1.622821 5.432922-2.328395 1.763936-0.635017 3.457314-1.128919 5.009578-1.552264 3.175084-0.776132 5.856267-1.199476 7.761317-1.340591 0.917247-0.070557 1.693378-0.070557 2.187281-0.141115 0.352787 0.28223 0.635017 0.28223 0.635016 0.28223z" fill="#FFFFFF" /><path d="M113.315235 459.893337m-12.135879 0a12.135878 12.135878 0 1 0 24.271757 0 12.135878 12.135878 0 1 0-24.271757 0Z" fill="#FFFFFF" /><path d="M645.953283 496.442086l247.586027-92.077447 51.859712 11.994763-283.288087 108.023427z" fill="#EACC53" /><path d="M945.399022 416.359402v29.916351L674.88183 552.041342l-2.681182-32.103631z" fill="#EABD2C" /><path d="M631.418452 530.168539m-156.708054 0a156.708055 156.708055 0 1 0 313.416109 0 156.708055 156.708055 0 1 0-313.416109 0Z" fill="#EBA824" /><path d="M631.418452 373.389926c-86.573968 0-156.708055 70.204644-156.708054 156.708055 0 0.917247 0.141115 1.763936 0.141114 2.681183 39.653276 32.174189 97.369255 52.424171 161.576518 52.424171 58.844898 0 112.186316-17.004341 151.204575-44.592297 0.211672-3.527872 0.564459-6.985186 0.56446-10.513057-0.070557-86.503411-70.204644-156.708055-156.778613-156.708055z" fill="#6E4921" /><path d="M760.326879 552.323572s-6.702956 15.028733-8.608006 47.273479c-0.352787 11.148074-6.702956 11.148074-10.865845 11.148074s-2.540068-23.001723-3.175084-26.811824c-0.635017-3.810101 0.635017-23.636739-19.473851-24.906773 35.41983-8.960794 42.122786-6.702956 42.122786-6.702956zM671.918418 560.296562s-5.291807 21.731689-6.844071 68.370151c-0.28223 16.157652-5.291807 16.157652-8.608006 16.157651-3.316199 0-2.046166-33.23255-2.540068-38.806587s0.493902-34.220354-15.452077-36.054847c28.152415-12.91201 33.444222-9.666368 33.444222-9.666368z" fill="#6E4921" /><path d="M588.025632 410.997037s-1.199476 0.141115-3.175084 0.56446c-0.987804 0.211672-2.18728 0.493902-3.598429 0.846689-1.340591 0.352787-2.892855 0.846689-4.515676 1.411148-1.622821 0.564459-3.386757 1.270034-5.22125 1.975608-1.834493 0.776132-3.739544 1.693378-5.644594 2.681183-0.987804 0.493902-1.905051 1.058361-2.892855 1.622821-0.917247 0.564459-1.905051 1.199476-2.892855 1.763936-0.917247 0.635017-1.905051 1.270034-2.822297 1.975608l-1.411148 0.987804-1.340592 1.058361c-1.834493 1.411149-3.527872 2.963412-5.150692 4.515676-0.423345 0.352787-0.776132 0.776132-1.199476 1.199476l-1.199477 1.199476c-0.776132 0.776132-1.481706 1.622821-2.18728 2.46951-1.411149 1.693378-2.75174 3.245642-3.880659 4.868463-0.28223 0.423345-0.564459 0.776132-0.846689 1.199477-0.28223 0.423345-0.564459 0.776132-0.776132 1.199476-0.493902 0.776132-1.058361 1.481706-1.481706 2.257838-0.917247 1.481706-1.763936 2.822297-2.46951 4.092331-0.705574 1.270034-1.340591 2.328395-1.763936 3.245642-0.917247 1.834493-1.481706 2.822297-1.481706 2.822297s0.423345-1.128919 1.128919-3.03397c0.352787-0.987804 0.846689-2.116723 1.411149-3.386756 0.564459-1.340591 1.340591-2.75174 2.116723-4.304004 0.423345-0.776132 0.917247-1.552263 1.340591-2.398952 0.211672-0.423345 0.493902-0.846689 0.776132-1.270034l0.846689-1.270034c1.128919-1.693378 2.328395-3.457314 3.739544-5.150692 0.705574-0.846689 1.411149-1.763936 2.18728-2.610625 0.776132-0.846689 1.552263-1.693378 2.398953-2.540068 1.693378-1.622821 3.386757-3.245642 5.291807-4.727348l1.411149-1.128919 1.411148-1.058361c0.917247-0.705574 1.975608-1.340591 2.892855-1.975608 1.975608-1.270034 4.021774-2.328395 5.997382-3.316199 1.975608-0.987804 4.021774-1.763936 5.856266-2.469511 1.905051-0.705574 3.739544-1.270034 5.432923-1.693378 3.457314-0.917247 6.350169-1.340591 8.396334-1.481706 1.058361-0.070557 1.834493-0.141115 2.398953-0.141115h0.917246z" fill="#FFFFFF" /><path d="M509.565769 496.794874m-13.19424 0a13.19424 13.19424 0 1 0 26.388479 0 13.19424 13.19424 0 1 0-26.388479 0Z" fill="#FFFFFF" /><path d="M409.374216 589.719011m-156.708055 0a156.708055 156.708055 0 1 0 313.41611 0 156.708055 156.708055 0 1 0-313.41611 0Z" fill="#EBA824" /><path d="M409.374216 433.010956c-86.573968 0-156.708055 70.204644-156.708055 156.708055 0 0.917247 0.141115 1.763936 0.141115 2.681182 39.653276 32.174189 97.369255 52.424171 161.576518 52.424171 58.844898 0 112.186316-17.004341 151.204575-44.592296 0.211672-3.527872 0.564459-6.985186 0.564459-10.513057 0-86.573968-70.204644-156.708055-156.778612-156.708055z" fill="#E2C655" /><path d="M373.248811 627.326121s8.749121 19.544408 11.218632 61.52608c0.423345 14.534831 8.749121 14.534831 14.111486 14.534831s3.316199-29.916351 4.162889-34.925928c0.846689-5.009578-0.846689-30.76304 25.330118-32.456419-46.14456-11.571419-54.823124-8.678564-54.823125-8.678564z" fill="#E2C655" /><path d="M420.592848 621.258182s6.914628 28.222973 8.890236 88.972921c0.352787 21.026115 6.914628 21.026115 11.218632 21.026115s2.610625-43.322263 3.316199-50.519121c0.635017-7.196858-0.635017-44.521739 20.108868-46.920692-36.619307-16.792669-43.533935-12.559223-43.533935-12.559223z" fill="#E2C655" /><path d="M360.195687 479.296631s-1.199476 0.141115-3.175085 0.564459c-0.987804 0.211672-2.18728 0.493902-3.598429 0.846689-1.340591 0.352787-2.892855 0.846689-4.515675 1.411149-1.622821 0.564459-3.386757 1.270034-5.22125 1.975608-1.834493 0.776132-3.739544 1.693378-5.644595 2.681182-0.987804 0.493902-1.905051 1.058361-2.892854 1.622821-0.917247 0.564459-1.905051 1.199476-2.892855 1.763936-0.917247 0.635017-1.905051 1.270034-2.822297 1.975608l-1.411149 0.987804-1.340591 1.058362c-1.834493 1.411149-3.527872 2.963412-5.150693 4.515675-0.423345 0.352787-0.776132 0.776132-1.199476 1.199477l-1.199476 1.199476c-0.776132 0.776132-1.481706 1.622821-2.187281 2.46951-1.411149 1.693378-2.75174 3.245642-3.880658 4.868463-0.28223 0.423345-0.564459 0.776132-0.84669 1.199476-0.28223 0.423345-0.564459 0.776132-0.776131 1.199476-0.493902 0.776132-1.058361 1.481706-1.481706 2.257838-0.917247 1.481706-1.763936 2.822297-2.469511 4.092331-0.705574 1.270034-1.340591 2.328395-1.763935 3.245642-0.917247 1.834493-1.481706 2.822297-1.481706 2.822297s0.423345-1.128919 1.128919-3.033969c0.352787-0.987804 0.846689-2.116723 1.411148-3.386757 0.564459-1.340591 1.340591-2.75174 2.116723-4.304003 0.423345-0.776132 0.917247-1.552263 1.340591-2.398953 0.211672-0.423345 0.493902-0.846689 0.776132-1.270034l0.846689-1.270033c1.128919-1.693378 2.328395-3.457314 3.739544-5.150693 0.705574-0.846689 1.411149-1.763936 2.18728-2.610625 0.776132-0.846689 1.552263-1.693378 2.398953-2.540067 1.693378-1.622821 3.386757-3.245642 5.291807-4.727348l1.411149-1.128919 1.411149-1.058362c0.917247-0.705574 1.975608-1.340591 2.892854-1.975608 1.975608-1.270034 4.021774-2.328395 5.997382-3.316199 1.975608-0.987804 4.021774-1.763936 5.856267-2.46951 1.905051-0.705574 3.739544-1.270034 5.432922-1.693378 3.457314-0.917247 6.350169-1.340591 8.396334-1.481707 1.058361-0.070557 1.834493-0.141115 2.398953-0.141114h0.917247z" fill="#FFFFFF" /><path d="M287.098188 565.306139m-13.19424 0a13.19424 13.19424 0 1 0 26.388479 0 13.19424 13.19424 0 1 0-26.388479 0Z" fill="#FFFFFF" /></svg>