<?xml version="1.0" encoding="utf-8"?><!-- Uploaded to: SVG Repo, www.svgrepo.com, Generator: SVG Repo Mixer Tools -->
<svg width="800px" height="800px" viewBox="0 0 24 24" fill="none" xmlns="http://www.w3.org/2000/svg">
<path d="M11 19H5C3.89543 19 3 18.1046 3 17V7C3 5.89543 3.89543 5 5 5H9.58579C9.851 5 10.1054 5.10536 10.2929 5.29289L12 7H19C20.1046 7 21 7.89543 21 9V10" stroke="#000000" stroke-width="2" stroke-linecap="round" stroke-linejoin="round"/>
<path d="M17.2426 19.4853L16.5355 20.1924C16.9261 20.5829 17.5592 20.5829 17.9497 20.1924L17.2426 19.4853ZM17.2426 13.8285L16.5355 14.5356C16.7231 14.7231 16.9774 14.8285 17.2426 14.8285C17.5079 14.8285 17.7622 14.7231 17.9497 14.5356L17.2426 13.8285ZM15.1213 15.9498C14.7308 15.5593 14.7308 14.9261 15.1213 14.5356L13.7071 13.1214C12.5355 14.2929 12.5355 16.1924 13.7071 17.364L15.1213 15.9498ZM17.9497 18.7782L15.1213 15.9498L13.7071 17.364L16.5355 20.1924L17.9497 18.7782ZM19.364 15.9498L16.5355 18.7782L17.9497 20.1924L20.7782 17.364L19.364 15.9498ZM19.364 14.5356C19.7545 14.9261 19.7545 15.5593 19.364 15.9498L20.7782 17.364C21.9497 16.1924 21.9497 14.2929 20.7782 13.1214L19.364 14.5356ZM17.9497 14.5356C18.3403 14.145 18.9734 14.145 19.364 14.5356L20.7782 13.1214C19.6066 11.9498 17.7071 11.9498 16.5355 13.1214L17.9497 14.5356ZM15.1213 14.5356C15.5118 14.145 16.145 14.145 16.5355 14.5356L17.9497 13.1214C16.7782 11.9498 14.8787 11.9498 13.7071 13.1214L15.1213 14.5356Z" fill="#000000"/>
</svg>