<?xml version="1.0" encoding="iso-8859-1"?>

<!DOCTYPE svg PUBLIC "-//W3C//DTD SVG 1.1//EN" "http://www.w3.org/Graphics/SVG/1.1/DTD/svg11.dtd">
<!-- Uploaded to: SVG Repo, www.svgrepo.com, Generator: SVG Repo Mixer Tools -->
<svg height="800px" width="800px" version="1.1" id="_x36_" xmlns="http://www.w3.org/2000/svg" xmlns:xlink="http://www.w3.org/1999/xlink" 
	 viewBox="0 0 512 512"  xml:space="preserve">
<g>
	<g>
		<polygon style="fill:#9AC676;" points="251.82,79.019 281.434,0 325.231,59.031 389.962,34.198 399.574,112.426 348.114,163.886 
					"/>
		<polygon style="fill:#85B932;" points="432.981,260.18 512,230.573 452.969,186.769 477.802,122.045 399.574,112.426 
			348.114,163.886 		"/>
	</g>
	<g>
		<path style="fill:#EA5756;" d="M349.527,162.473c0,0,1.611,1.61-12.677-12.671c-17.573-17.572-40.011-40.018-52.823-52.83
			c-23.237-23.25-116.734-56.516-197.547,24.296C5.667,202.096-2.879,340.004,0.646,388.808
			c3.701,51.234,27.467,78.171,35.921,86.632L349.527,162.473z"/>
		<path style="fill:#E8413E;" d="M349.527,162.473c0,0-1.61-1.611,12.678,12.685c17.565,17.558,40.003,40.003,52.823,52.815
			c23.237,23.237,56.516,116.734-24.303,197.547c-80.813,80.813-218.742,89.358-267.532,85.827
			c-51.234-3.701-78.171-27.46-86.625-35.907L349.527,162.473z"/>
	</g>
	<g style="opacity:0.75;">
		<path style="fill:#B31E24;" d="M165.618,181.119c-11.816,11.809-26.718,16.075-33.28,9.506
			c-6.562-6.554-2.303-21.457,9.513-33.266c11.809-11.823,26.712-16.074,33.273-9.506
			C181.686,154.407,177.427,169.31,165.618,181.119z"/>
		<path style="fill:#B31E24;" d="M127.585,299.972c-11.815,11.809-26.711,16.075-33.272,9.506
			c-6.562-6.568-2.31-21.471,9.506-33.279c11.816-11.809,26.712-16.075,33.273-9.507C143.66,273.26,139.401,288.163,127.585,299.972
			z"/>
		<path style="fill:#B31E24;" d="M260.691,276.199c-11.816,11.809-26.711,16.074-33.272,9.506c-6.569-6.568-2.31-21.457,9.506-33.28
			c11.816-11.809,26.712-16.075,33.28-9.507C276.766,249.487,272.507,264.39,260.691,276.199z"/>
		<path style="fill:#B31E24;" d="M346.264,361.771c-11.809,11.809-26.705,16.075-33.273,9.507c-6.568-6.568-2.31-21.457,9.5-33.28
			c11.815-11.809,26.711-16.075,33.279-9.492C362.339,335.06,358.08,349.962,346.264,361.771z"/>
		<path style="fill:#B31E24;" d="M232.171,409.318c-11.816,11.809-26.712,16.061-33.28,9.507c-6.561-6.568-2.302-21.471,9.507-33.28
			c11.816-11.809,26.711-16.074,33.279-9.506C248.246,382.607,243.988,397.509,232.171,409.318z"/>
		<path style="fill:#B31E24;" d="M113.318,423.571c-11.809,11.809-26.705,16.075-33.273,9.507
			c-6.555-6.555-2.303-21.457,9.513-33.28c11.809-11.809,26.712-16.061,33.273-9.506
			C129.393,396.86,125.142,411.762,113.318,423.571z"/>
	</g>
</g>
</svg>